<?xml version="1.0" standalone="no"?>
<!DOCTYPE svg PUBLIC "-//W3C//DTD SVG 20010904//EN"
 "http://www.w3.org/TR/2001/REC-SVG-20010904/DTD/svg10.dtd">
<svg version="1.0" xmlns="http://www.w3.org/2000/svg"
 width="417.000000pt" height="417.000000pt" viewBox="0 0 417.000000 417.000000"
 preserveAspectRatio="xMidYMid meet">
<metadata>
Created by potrace 1.14, written by Peter Selinger 2001-2017
</metadata>
<g transform="translate(0.000000,417.000000) scale(0.100000,-0.100000)"
fill="#000000" stroke="none">
<path d="M460 2090 l0 -760 333 0 333 0 1 430 c0 237 3 433 6 436 3 4 33 6 67
6 33 -1 86 -1 118 -1 l57 -1 0 -433 0 -432 190 -2 190 -3 34 30 c19 17 78 72
133 122 54 51 104 95 109 99 7 4 11 168 11 500 l0 493 -81 77 c-45 42 -111
104 -148 138 l-66 61 -644 0 -643 0 0 -760z m1247 616 c4 -4 51 -48 104 -97
l97 -90 0 -434 1 -433 -101 -94 -101 -93 -98 -1 -99 -1 -2 436 -3 436 -245 1
c-135 0 -250 -1 -256 -3 -8 -3 -11 -131 -10 -433 1 -237 -1 -431 -4 -432 -12
-3 -357 -6 -375 -3 -21 4 -21 8 -19 622 0 340 2 620 2 624 3 9 1100 5 1109 -5z"/>
<path d="M2363 2814 c-21 -20 -78 -73 -127 -118 -118 -108 -116 -106 -117
-119 0 -7 0 -228 -1 -492 l0 -480 75 -70 c41 -38 107 -100 147 -137 l73 -68
644 0 643 0 0 760 0 760 -333 0 -334 0 0 -431 c0 -286 -4 -433 -11 -438 -5 -3
-61 -4 -123 -1 l-114 5 0 430 0 430 -192 3 -191 2 -39 -36z m287 -534 l0 -436
258 1 257 0 2 420 c1 231 2 427 2 436 1 14 25 16 199 15 l198 0 0 -626 -1
-625 -550 -1 -551 -1 -106 101 -106 101 0 432 0 431 47 44 c25 23 71 66 101
94 l55 50 98 0 97 0 0 -436z"/>
</g>
</svg>
